<svg xmlns="http://www.w3.org/2000/svg" style="display:none">
  <symbol id="icon-plus" viewBox="0 0 24 24" fill="none" stroke="currentColor" stroke-width="2" stroke-linecap="round" stroke-linejoin="round">
    <circle cx="12" cy="12" r="9" />
    <path d="M9 12h6m-3-3v6" />
  </symbol>
  <symbol id="icon-trash" viewBox="0 0 24 24" fill="none" stroke="currentColor" stroke-width="2" stroke-linecap="round" stroke-linejoin="round">
    <path d="M4 7h16M5 7l1 12a2 2 0 0 0 2 2h8a2 2 0 0 0 2-2l1-12M9 7V4a1 1 0 0 1 1-1h4a1 1 0 0 1 1 1v3" />
    <path d="M10 12l4 4m0-4l-4 4" />
  </symbol>
  <symbol id="icon-x" viewBox="0 0 24 24" fill="none" stroke="currentColor" stroke-width="2" stroke-linecap="round" stroke-linejoin="round">
    <circle cx="12" cy="12" r="9" />
    <path d="M10 10l4 4m0-4l-4 4" />
  </symbol>
</svg>
